<svg height="512pt" viewBox="0 0 512 512" width="512pt" xmlns="http://www.w3.org/2000/svg"><path d="m512 327v-207h-71.078125c12.992187-12.714844 21.078125-30.429688 21.078125-50 0-38.597656-31.402344-70-70-70s-70 31.402344-70 70c0 19.570312 8.085938 37.285156 21.078125 50h-173.15625c12.992187-12.714844 21.078125-30.429688 21.078125-50 0-38.597656-31.402344-70-70-70s-70 31.402344-70 70c0 19.570312 8.085938 37.285156 21.078125 50h-72.078125v207h40v145h-40v40h120v-40h-40v-145h352v145h-40v40h120v-40h-40v-145zm-120-287c16.542969 0 30 13.457031 30 30s-13.457031 30-30 30-30-13.457031-30-30 13.457031-30 30-30zm-271 0c16.542969 0 30 13.457031 30 30s-13.457031 30-30 30-30-13.457031-30-30 13.457031-30 30-30zm280.785156 247 70.214844-70.214844v70.214844zm70.214844-126.785156-126.785156 126.785156h-61.929688l127-127h61.714844zm-184.714844-.214844h66.429688l-127 127h-66.429688zm-183.570312 127h-63.429688l127-127h63.429688zm7-127-70.714844 70.714844v-70.714844zm0 0"/></svg>